<svg id="logo_full" xmlns="http://www.w3.org/2000/svg" viewBox="0 0 926.85 202.14"><defs><style>.cls-1{fill:#fff;}.cls-2{fill:#ff2929;}.cls-3{fill:#0c0c0c;}</style></defs><title>gauthankars_kitchen_full</title><g id="name"><path class="cls-1" d="M252.27,240.4a29.16,29.16,0,0,1,4.2-14.85,45.13,45.13,0,0,1,11.44-12.86,57.9,57.9,0,0,1,16.57-8.9,57.11,57.11,0,0,1,18.93-3.26,23.75,23.75,0,0,1,8.39,1.13q2.81,1.13,2.81,3.3a5.88,5.88,0,0,1-.33,2.26,6,6,0,0,1-1.76,1.76,4.08,4.08,0,0,1-1.93.94c-.22,0-1-.06-2.42-.2s-2.56-.21-3.49-.21a69.26,69.26,0,0,0-9.35.62,65.68,65.68,0,0,0-9.14,1.93,54.06,54.06,0,0,0-8.31,3,31.67,31.67,0,0,0-6.38,3.9,26.07,26.07,0,0,0-5.78,6.11,20.44,20.44,0,0,0-2.89,6.62,32.42,32.42,0,0,0-.8,7.45,16.73,16.73,0,0,0,.16,2.6,5.06,5.06,0,0,0,.78,1.95,10.24,10.24,0,0,0,1.64,1.89c2.22,2,4.18,3,5.91,3A39.48,39.48,0,0,0,281,247.31a43.68,43.68,0,0,0,8.65-3.32,37.85,37.85,0,0,0,5.89-3.67c1.39-1.13,2.09-1.88,2.09-2.26,0-1.12-.84-1.68-2.5-1.68q-7.75,0-12.37.31t-6.13.51q-4.72,0-4.72-2.83a3.72,3.72,0,0,1,1.27-2.81,13.82,13.82,0,0,1,4.39-2.32,74,74,0,0,1,9.6-3.07,38.11,38.11,0,0,1,8.94-1,18.81,18.81,0,0,1,6.63.88,3.27,3.27,0,0,1,2.19,3.3,12.86,12.86,0,0,1-.41,3.35,17.24,17.24,0,0,1-.92,2.62,7.69,7.69,0,0,0-.52,1.25,6.14,6.14,0,0,0,.21,1.15,6.38,6.38,0,0,1,.2,1.48q0,2.54-3.22,5.84a40.23,40.23,0,0,1-8.32,6.34,55.6,55.6,0,0,1-11.12,5,35.35,35.35,0,0,1-11,2,19.69,19.69,0,0,1-7.05-1.21,15.75,15.75,0,0,1-5.58-3.53,15.24,15.24,0,0,1-3.65-5.64A20.92,20.92,0,0,1,252.27,240.4Z" transform="translate(-30.11 -148.93)"/><path class="cls-1" d="M337.78,251.68a85.75,85.75,0,0,0-9.57.35c-1.82.23-2.94.67-3.37,1.31a8.22,8.22,0,0,0-.76,3.71,7.32,7.32,0,0,1-1,3.59,7.08,7.08,0,0,1-2.44,2.56,5.71,5.71,0,0,1-3,.9,4.38,4.38,0,0,1-3.3-1,4.56,4.56,0,0,1-.92-3.14,11.62,11.62,0,0,1,1.07-4.28,48.12,48.12,0,0,1,3.09-6q2-3.41,5.27-8.45,3-4.63,5.66-8.27t4.56-5.82c1.23-1.46,2.29-2.67,3.18-3.61s1.45-1.54,1.7-1.78a31.18,31.18,0,0,1,3.81-4.15l1.38-1.08a7.79,7.79,0,0,0,.92-.86,1.33,1.33,0,0,0,.37-.8,5.91,5.91,0,0,0-1.17-2.63,26.81,26.81,0,0,1-1.42-2.34,4,4,0,0,0-.55-1.06,2.74,2.74,0,0,0-.88-.54,1.66,1.66,0,0,1-.92-.76,3.4,3.4,0,0,1-.19-1.33c0-1.23.88-2.25,2.63-3.07a10.64,10.64,0,0,1,4.18-1.23,6.33,6.33,0,0,1,3.85,1.33,17.89,17.89,0,0,1,3.7,3.92,75.14,75.14,0,0,1,4.34,6.91q2.46,4.32,6.44,11.54,2.55,4.73,7.41,12.57t6.07,10a7.62,7.62,0,0,1,1.21,3.51,5.2,5.2,0,0,1-1.85,4.08,6.76,6.76,0,0,1-4.63,1.62q-3.12,0-5.79-3.2c-1.17-1.5-1.95-2.47-2.33-2.89a1.94,1.94,0,0,0-1.52-.64,29.29,29.29,0,0,0-4.9.76c-2.42.51-4.28.87-5.56,1.09a28.88,28.88,0,0,1-4.76.33,39.61,39.61,0,0,1-4.82-.27c-1.46-.18-2.66-.37-3.61-.58S337.89,251.68,337.78,251.68Zm13.46-8.49q6.72,0,6.72-.86a4.55,4.55,0,0,0-.16-1.46,8.06,8.06,0,0,0-.7-1.29c-.24-.49-.74-1.62-1.47-3.37s-1.43-3.32-2.06-4.71a41.44,41.44,0,0,0-2-3.94q-2.08-3.9-3-5.31c-.59-.94-1.1-1.42-1.54-1.42a2.36,2.36,0,0,0-1,.58,13.81,13.81,0,0,0-1.7,1.64,17.49,17.49,0,0,0-1.95,2.66c-.44.72-1.21,1.93-2.32,3.65s-2.44,3.64-4,5.75c-.57.79-1.38,1.78-2.42,3a25.75,25.75,0,0,0-2.09,2.61,3.18,3.18,0,0,0-.39,2.7.61.61,0,0,0,.64.37c-.36,0,.71-.22,3.22-.68a44.29,44.29,0,0,1,7.85-.67l3,.39A41.17,41.17,0,0,0,351.24,243.19Z" transform="translate(-30.11 -148.93)"/><path class="cls-1" d="M422.48,211.85a3,3,0,0,1,.88-2,10.17,10.17,0,0,1,2.2-1.84,17.46,17.46,0,0,1,2.4-1.32,5,5,0,0,1,1.41-.47,6.13,6.13,0,0,1,3.36,1.56,10.32,10.32,0,0,1,2.83,3,10.47,10.47,0,0,1,.82,2.16,27.47,27.47,0,0,1,.89,3.93,30.94,30.94,0,0,1,.34,4.7c0,4.21-.15,8-.47,11.4a56.86,56.86,0,0,1-.8,6.4A12.39,12.39,0,0,1,435,242.9a10.29,10.29,0,0,1-1.62,2.11,21.86,21.86,0,0,1-2.11,1.77,10.48,10.48,0,0,0-1.75,1.53c-.13.25-.42.71-.86,1.38a8.06,8.06,0,0,1-2.56,2.17,25.93,25.93,0,0,1-5.56,2.32,76.58,76.58,0,0,1-10.29,2.3,62.07,62.07,0,0,1-9.27.9,28.38,28.38,0,0,1-7.9-1.17,22.93,22.93,0,0,1-6-2.44q-3.76-2.67-3.77-6.15a38.6,38.6,0,0,1,1-7.37,53.46,53.46,0,0,1,2.74-9.08c1-2.3,1.84-4.2,2.65-5.72s1.52-2.77,2.15-3.76a15.09,15.09,0,0,1,1.23-1.76c1.32-1.31,2.44-2,3.37-2,.71,0,1.14.12,1.29.35a2.48,2.48,0,0,1,.22,1.25,11.62,11.62,0,0,1-.94,2.28q-.94,2-1.93,4.53a38.29,38.29,0,0,0-1.7,6.19,41.93,41.93,0,0,0-.72,8.08,10.22,10.22,0,0,0,.41,2.73,5.55,5.55,0,0,0,.87,2q.81,1,5,2.36a30.25,30.25,0,0,0,9.15,1.33,25.68,25.68,0,0,0,5-.55,46.9,46.9,0,0,0,5.23-1.35,20.59,20.59,0,0,0,3.45-1.38,14.24,14.24,0,0,0,3.83-3.57c1.41-1.75,2.11-3.26,2.11-4.55q0-2.39-3.93-19.56Q422.48,212.18,422.48,211.85Z" transform="translate(-30.11 -148.93)"/><path class="cls-1" d="M496,201.84a6,6,0,0,1,3.42.76,3,3,0,0,1,1.05,2.61,6.15,6.15,0,0,1-.9,2.62,8.27,8.27,0,0,1-2.05,2.59,16.61,16.61,0,0,1-5.21,2.07,69.39,69.39,0,0,1-9.77,1.78,27.6,27.6,0,0,0-6.13,1.23,2.73,2.73,0,0,0-1.58,2.83q0,1.6.41,8.25t.42,11.56q0,1.11-.09,2.52c-.05,1-.11,1.84-.16,2.69s-.11,1.75-.17,2.71a49.53,49.53,0,0,1-.43,6.68,5.32,5.32,0,0,1-2,3.37,8,8,0,0,1-1.73.94,5,5,0,0,1-1.56.49q-4,0-4-5.7c0-.66.07-2,.21-3.94s.26-4,.37-6.17.17-4.6.17-7.36q0-9.56-.23-13.29c-.15-2.49-.58-4-1.29-4.51a6,6,0,0,0-1.92-.31c-1.18-.1-2.78-.18-4.82-.27s-4.51-.12-7.43-.12q-7.86,0-7.86-4.18a3.35,3.35,0,0,1,.59-1.56,5,5,0,0,1,1.42-1.56,9.88,9.88,0,0,1,3.63-1.5,36.46,36.46,0,0,1,5-.67c1.89-.14,4.52-.3,7.88-.5s5.86-.37,7.5-.53q6.17-.62,10.05-1.11c2.6-.32,6-.81,10.18-1.45S495.46,201.84,496,201.84Z" transform="translate(-30.11 -148.93)"/><path class="cls-1" d="M501.85,239.91a3.22,3.22,0,0,1,1.07-2.34l1.62-1.56a5.21,5.21,0,0,0,1.21-1.78,8.86,8.86,0,0,0,.54-2.73q.57-9.27,1-13.15a17.73,17.73,0,0,1,1.89-6.5,5.74,5.74,0,0,1,4.56-3c1.1,0,1.81.26,2.14.78a5.21,5.21,0,0,1,.5,2.66v1.85q0,2-.33,6t-.43,5.58c-.07,1.05-.11,2.46-.11,4.24,0,.88.14,1.43.42,1.66a3,3,0,0,0,1.8.35q1.23,0,6.89-.49t9.72-.5a10.19,10.19,0,0,1,1.15.09c.49.05.86.08,1.11.08,1.5,0,2.49-.44,3-1.31a8.19,8.19,0,0,0,.7-3.74q0-5,.26-7.89a17.45,17.45,0,0,1,1-4.62,4.9,4.9,0,0,1,2.07-2.54,7.21,7.21,0,0,1,3.69-.82,1.83,1.83,0,0,1,2,1.54,25.68,25.68,0,0,1,.45,4.86q0,1.8.76,7.63t1,8.63c.2,1.87.3,4.07.33,6.58a63.16,63.16,0,0,0,.35,6.73q.32,2.42.51,3.24a8.22,8.22,0,0,1-1.31,4.88,4.23,4.23,0,0,1-3.65,1.85A5.92,5.92,0,0,1,544,255a6,6,0,0,1-2-3.15,23.71,23.71,0,0,1-.84-5.48c-.14-2.29-.25-3.78-.33-4.48a2.58,2.58,0,0,0-.78-1.66,12.11,12.11,0,0,0-2.58-.78,20.58,20.58,0,0,0-4.8-.57,43.66,43.66,0,0,0-4.43.23c-1.48.15-2.87.3-4.19.47l-4.84.57a8.64,8.64,0,0,0-4.14,1.29,2.86,2.86,0,0,0-1.4,2.31,6.94,6.94,0,0,0,.64,2.6c.42,1,.75,1.9,1,2.62a13.31,13.31,0,0,1,.32,3.42,7.2,7.2,0,0,1-.74,3.29,6.05,6.05,0,0,1-2.12,2.42,5.63,5.63,0,0,1-3.19.92,4.74,4.74,0,0,1-4.05-2.36,11.59,11.59,0,0,1-1.58-6.54c0-.68.05-1.63.16-2.83s.16-2,.16-2.38a5.11,5.11,0,0,0-.2-1.74,4.61,4.61,0,0,0-1-1.29A4.13,4.13,0,0,1,501.85,239.91Z" transform="translate(-30.11 -148.93)"/><path class="cls-1" d="M579.82,251.68a86,86,0,0,0-9.58.35c-1.82.23-2.94.67-3.36,1.31a8,8,0,0,0-.76,3.71,7.44,7.44,0,0,1-1,3.59,7,7,0,0,1-2.44,2.56,5.68,5.68,0,0,1-3,.9,4.35,4.35,0,0,1-3.3-1,4.51,4.51,0,0,1-.93-3.14,11.62,11.62,0,0,1,1.07-4.28,47,47,0,0,1,3.1-6q2-3.41,5.27-8.45,3-4.63,5.66-8.27t4.55-5.82c1.23-1.46,2.29-2.67,3.18-3.61s1.45-1.54,1.7-1.78a31.18,31.18,0,0,1,3.81-4.15l1.38-1.08a6.48,6.48,0,0,0,.92-.86,1.28,1.28,0,0,0,.37-.8,5.91,5.91,0,0,0-1.17-2.63,23.46,23.46,0,0,1-1.41-2.34,4,4,0,0,0-.56-1.06,2.74,2.74,0,0,0-.88-.54,1.66,1.66,0,0,1-.92-.76,3.6,3.6,0,0,1-.19-1.33c0-1.23.88-2.25,2.63-3.07a10.64,10.64,0,0,1,4.18-1.23,6.38,6.38,0,0,1,3.86,1.33,18.11,18.11,0,0,1,3.69,3.92,72.83,72.83,0,0,1,4.35,6.91q2.46,4.32,6.44,11.54,2.53,4.73,7.4,12.57t6.07,10a7.5,7.5,0,0,1,1.21,3.51,5.2,5.2,0,0,1-1.85,4.08,6.76,6.76,0,0,1-4.63,1.62q-3.12,0-5.78-3.2c-1.18-1.5-2-2.47-2.34-2.89a1.93,1.93,0,0,0-1.52-.64,29.29,29.29,0,0,0-4.9.76q-3.63.76-5.56,1.09a28.8,28.8,0,0,1-4.76.33,39.73,39.73,0,0,1-4.82-.27c-1.46-.18-2.66-.37-3.6-.58S579.93,251.68,579.82,251.68Zm13.45-8.49c4.48,0,6.73-.29,6.73-.86a4.48,4.48,0,0,0-.17-1.46,8.06,8.06,0,0,0-.7-1.29c-.24-.49-.73-1.62-1.47-3.37s-1.42-3.32-2-4.71a43.92,43.92,0,0,0-2-3.94q-2.1-3.9-3-5.31c-.58-.94-1.1-1.42-1.53-1.42a2.31,2.31,0,0,0-1,.58,13.81,13.81,0,0,0-1.7,1.64,19,19,0,0,0-1.95,2.66c-.44.72-1.21,1.93-2.32,3.65s-2.44,3.64-4,5.75c-.57.79-1.38,1.78-2.42,3a29.05,29.05,0,0,0-2.09,2.61,3,3,0,0,0-.53,1.64,3.18,3.18,0,0,0,.14,1.06.61.61,0,0,0,.64.37c-.36,0,.72-.22,3.22-.68a44.29,44.29,0,0,1,7.85-.67l3,.39A41,41,0,0,0,593.27,243.19Z" transform="translate(-30.11 -148.93)"/><path class="cls-1" d="M672.59,203.28a3.61,3.61,0,0,1,3.33,2.17,17.61,17.61,0,0,1,1.51,6.48c.09.44.22,1.4.41,2.89s.37,3.78.54,6.85.24,6.81.24,11.18q0,7.59-.45,12.47c-.3,3.25-.54,5.54-.74,6.85a6.78,6.78,0,0,1-2.54,4.31,8.93,8.93,0,0,1-5.33,1.39q-3.49,0-9.66-2.62a68.52,68.52,0,0,1-12-6.63,38.06,38.06,0,0,1-8.49-7.44,18.08,18.08,0,0,0-1.93-2.26,2.3,2.3,0,0,0-1.51-.78c-.19,0-.36.31-.5.92a23.72,23.72,0,0,0-.36,2.86c-.11,1.28-.22,2.78-.33,4.51s-.25,3.8-.41,6.23a8.58,8.58,0,0,1-1.42,4.66,4.57,4.57,0,0,1-3.87,1.58,2.26,2.26,0,0,1-1.85-.76,5.22,5.22,0,0,1-.82-2.61,55.11,55.11,0,0,1-.2-5.62c0-3.85.1-7.18.32-10s.45-5.09.68-6.85.4-2.94.51-3.51a9.26,9.26,0,0,0-1.17-3.73,9.27,9.27,0,0,1-1.17-3.49q0-.9,1.89-2.46a7.65,7.65,0,0,1,3.24-1.8,13.58,13.58,0,0,1,2.91-.21c.55,0,1.11.42,1.69,1.27a45.91,45.91,0,0,0,3.73,4.64c1.5,1.66,3.46,3.65,5.86,5.94s4.64,4.35,6.69,6.16q6,5.21,10.52,8.47t5.19,3.26a3.87,3.87,0,0,0,2-.39c.38-.26.57-.86.57-1.79,0-.08-.19-1.58-.57-4.51s-.67-5.73-.86-8.41q-.28-3.77-.56-6.93c-.17-2.1-.34-4.34-.49-6.7S667,214,667,211.28a23,23,0,0,1,.24-3.76,4.54,4.54,0,0,1,1.27-2.4,9.54,9.54,0,0,1,2.07-1.27A5.23,5.23,0,0,1,672.59,203.28Z" transform="translate(-30.11 -148.93)"/><path class="cls-1" d="M691.54,206.4a2.47,2.47,0,0,1,2.2,1.06,6.57,6.57,0,0,1,.76,3.45c0,1.17.11,2.22.18,3.14s.14,1.7.23,2.35.15,1.15.2,1.46.12.8.21,1.46a7.76,7.76,0,0,0,.8,2.87,2,2,0,0,0,1.82.82,1.87,1.87,0,0,0,.9-.19,3.33,3.33,0,0,0,.8-.57l.78-.72a33.42,33.42,0,0,1,3.18-2q2.83-1.66,8.31-4.41t10.48-5a79.39,79.39,0,0,1,12.3-4.45,40.51,40.51,0,0,1,6.93-1.42,6,6,0,0,1,4.06,1.11,4.82,4.82,0,0,1,1.23,3.73,5.39,5.39,0,0,1-.53,2.59,6.91,6.91,0,0,1-1.93,2.05,9.61,9.61,0,0,1-3.42,1.84,14.2,14.2,0,0,1-3.49.5l-4,.08a35.25,35.25,0,0,0-9.55,2.21,60.06,60.06,0,0,0-9,4.11q-3.85,2.21-3.85,2.78c0,1.21,2,2.79,5.91,4.76a60.22,60.22,0,0,1,12,7.18q4.06,3.36,4.06,6a13.8,13.8,0,0,1-.33,3.36,7.74,7.74,0,0,1-2.62,3.45,5.92,5.92,0,0,1-3.53,1.51,5.31,5.31,0,0,1-3-.71,14.45,14.45,0,0,1-2.77-2.85,29.74,29.74,0,0,0-2.65-3,27.57,27.57,0,0,0-3.17-2.6,14.42,14.42,0,0,0-2.24-1.31l-1.11-.48a20.5,20.5,0,0,1-3.36-2.27c-1.2-1-2.34-1.92-3.4-2.85a28.1,28.1,0,0,0-2.88-2.24,4.17,4.17,0,0,0-2.21-.84,2.15,2.15,0,0,0-1.7,1,3.77,3.77,0,0,0-.76,2.4,25.55,25.55,0,0,0,.51,4.54,14.41,14.41,0,0,0,.76,3.09q.54.21,1.35,2c.55,1.21.82,3.53.82,7a5.15,5.15,0,0,1-1.76,3.46,6.91,6.91,0,0,1-5.21,1.83c-.85,0-1.61-.71-2.3-2.12a28.51,28.51,0,0,1-1.9-6.56q-.88-4.46-1.58-10.23a214.38,214.38,0,0,1-1.6-26.37,6.26,6.26,0,0,1,.22-1.81,4,4,0,0,1,1-1.56,15.58,15.58,0,0,1,2.21-1.91A3.63,3.63,0,0,1,691.54,206.4Z" transform="translate(-30.11 -148.93)"/><path class="cls-1" d="M771,251.68a86,86,0,0,0-9.58.35c-1.82.23-2.94.67-3.36,1.31a8.08,8.08,0,0,0-.76,3.71,7.43,7.43,0,0,1-1,3.59,7.16,7.16,0,0,1-2.44,2.56,5.74,5.74,0,0,1-3,.9,4.38,4.38,0,0,1-3.3-1,4.51,4.51,0,0,1-.92-3.14,11.58,11.58,0,0,1,1.06-4.28,48.35,48.35,0,0,1,3.1-6q2-3.41,5.27-8.45,3-4.63,5.66-8.27c1.81-2.42,3.32-4.36,4.55-5.82s2.29-2.67,3.18-3.61,1.46-1.54,1.7-1.78a31.08,31.08,0,0,1,3.82-4.15c.55-.43,1-.8,1.37-1.08a7.21,7.21,0,0,0,.93-.86,1.31,1.31,0,0,0,.36-.8,5.85,5.85,0,0,0-1.16-2.63,24.36,24.36,0,0,1-1.42-2.34,4,4,0,0,0-.55-1.06,2.86,2.86,0,0,0-.88-.54,1.69,1.69,0,0,1-.93-.76,3.64,3.64,0,0,1-.18-1.33c0-1.23.87-2.25,2.62-3.07a10.68,10.68,0,0,1,4.19-1.23,6.35,6.35,0,0,1,3.85,1.33,17.64,17.64,0,0,1,3.69,3.92,72.83,72.83,0,0,1,4.35,6.91q2.46,4.32,6.44,11.54,2.55,4.73,7.4,12.57t6.07,10a7.5,7.5,0,0,1,1.21,3.51,5.19,5.19,0,0,1-1.84,4.08,6.78,6.78,0,0,1-4.64,1.62q-3.11,0-5.78-3.2c-1.18-1.5-2-2.47-2.34-2.89a1.93,1.93,0,0,0-1.52-.64,29.44,29.44,0,0,0-4.9.76q-3.63.76-5.55,1.09a29,29,0,0,1-4.76.33,39.61,39.61,0,0,1-4.82-.27c-1.46-.18-2.67-.37-3.61-.58S771.1,251.68,771,251.68Zm13.45-8.49q6.73,0,6.73-.86a4.55,4.55,0,0,0-.16-1.46,9,9,0,0,0-.7-1.29c-.25-.49-.74-1.62-1.48-3.37s-1.42-3.32-2.05-4.71a43.92,43.92,0,0,0-2-3.94q-2.09-3.9-3-5.31c-.59-.94-1.1-1.42-1.54-1.42a2.36,2.36,0,0,0-1,.58,13.8,13.8,0,0,0-1.71,1.64,18.19,18.19,0,0,0-1.94,2.66c-.44.72-1.21,1.93-2.32,3.65s-2.44,3.64-4,5.75c-.58.79-1.38,1.78-2.42,3a25.75,25.75,0,0,0-2.09,2.61,2.94,2.94,0,0,0-.54,1.64,2.91,2.91,0,0,0,.15,1.06.59.59,0,0,0,.63.37c-.35,0,.72-.22,3.22-.68a44.32,44.32,0,0,1,7.86-.67l3,.39A41.15,41.15,0,0,0,784.44,243.19Z" transform="translate(-30.11 -148.93)"/><path class="cls-1" d="M818,247.7v-9.07q0-5.37.29-9.16c.19-2.53.36-4.18.49-4.95a5.53,5.53,0,0,0-.57-2c-.38-.86-.65-1.47-.8-1.84a4.07,4.07,0,0,1-.23-1.5c0-1,.75-2.21,2.26-3.77a24.76,24.76,0,0,1,6.44-4.51,45.36,45.36,0,0,1,10.62-3.67A64.16,64.16,0,0,1,851,205.7a62,62,0,0,1,12.41,1,21.47,21.47,0,0,1,9.12,4.45q3.62,3,3.61,6a14,14,0,0,1-2.58,7.9,25.56,25.56,0,0,1-7.08,6.87,35.53,35.53,0,0,1-9.86,4.63q-3.48,1-4.92,1.62a2,2,0,0,0-1.44,2,2.45,2.45,0,0,0,1.27,2.1,39.45,39.45,0,0,0,9,4.79,22.83,22.83,0,0,0,7.71,1.6,7.2,7.2,0,0,0,4.39-1.27c.54-.41,1-.78,1.47-1.13a9.28,9.28,0,0,1,1.4-.9,3.11,3.11,0,0,1,1.47-.39,2.87,2.87,0,0,1,2.46,1.27,6,6,0,0,1,.91,3.53,5.1,5.1,0,0,1-2.14,4,14.69,14.69,0,0,1-5.64,2.71,29.46,29.46,0,0,1-7.69.94,30.22,30.22,0,0,1-8.06-1.29,42.26,42.26,0,0,1-8.92-3.69,32.61,32.61,0,0,1-7.38-5.44c-.93-1-1.72-1.83-2.38-2.54A5.85,5.85,0,0,0,836,243a9,9,0,0,0-3.24-.45,3.21,3.21,0,0,0-2.38.64,2.57,2.57,0,0,0-.57,1.78c0,.3,0,.57.06.82s0,.56,0,.94a14.08,14.08,0,0,1-1.93,7.71,5.71,5.71,0,0,1-5,3,4,4,0,0,1-1.58-.53,7.08,7.08,0,0,1-1.62-1.07Q818,254,818,247.7Zm26-34.33a33.35,33.35,0,0,0-3.9.27c-1.5.17-2.48.28-2.91.3a14.21,14.21,0,0,0-4.51.8,5.61,5.61,0,0,0-2.73,2.24,11,11,0,0,0-1.42,4.22,47.82,47.82,0,0,0-.41,6.93,8.08,8.08,0,0,0,.56,2.69,6.05,6.05,0,0,0,1,2c.68.68,2.48,1,5.37,1a62.27,62.27,0,0,0,14.77-1.64,37.92,37.92,0,0,0,11.11-4.34,24.29,24.29,0,0,0,4.37-3.24,3.78,3.78,0,0,0,1.17-2.63,5.85,5.85,0,0,0-2-4.55,11.78,11.78,0,0,0-3.87-1.83,46.48,46.48,0,0,0-7.16-1.56A65,65,0,0,0,843.92,213.37Z" transform="translate(-30.11 -148.93)"/><path class="cls-1" d="M886.74,231.91a2.34,2.34,0,0,1-1.79-.78,3.15,3.15,0,0,1-.72-2.22,28.34,28.34,0,0,1,.25-3.5c.16-1.27.37-2.71.62-4.31l1.14-7.57a26,26,0,0,1,3-9.18q2-3.16,7-3.16c.85,0,1.27.72,1.27,2.17a21.16,21.16,0,0,1-.61,4.74q-.61,2.64-2.2,8.37T892,226.62a7.43,7.43,0,0,1-2.14,3.85A4.65,4.65,0,0,1,886.74,231.91Z" transform="translate(-30.11 -148.93)"/><path class="cls-1" d="M935.45,201.27a18,18,0,0,1,7.17,1.27c2,.85,3.18,1.9,3.67,3.16a6,6,0,0,1,.25,2,5.86,5.86,0,0,1-1.83,4.47,7.31,7.31,0,0,1-5.23,1.72,7.51,7.51,0,0,1-4.26-1.35,12.94,12.94,0,0,0-1.87-1.09,7,7,0,0,0-2.23-.23,9.28,9.28,0,0,0-3.31.6,27.47,27.47,0,0,0-3.5,1.66c-3.64,1.91-6.18,3.29-7.63,4.12a21.5,21.5,0,0,0-3.76,2.71,4.05,4.05,0,0,0-1.57,2.89c0,.77.83,1.48,2.5,2.13a16.26,16.26,0,0,0,6,1c3.11,0,6.13-.09,9-.27s5.59-.37,8-.57,4.15-.31,5.11-.31a37.71,37.71,0,0,1,7.07.64,17.83,17.83,0,0,1,4.08,1,5.89,5.89,0,0,1,3,3,13,13,0,0,1,.83,5,13.7,13.7,0,0,1-3,8,29.71,29.71,0,0,1-8.25,7.46,46.69,46.69,0,0,1-12.17,5.38,51.25,51.25,0,0,1-14.41,2,29.75,29.75,0,0,1-9.29-1.36,15.08,15.08,0,0,1-6.33-3.65,7,7,0,0,1-2.19-4.88,7.37,7.37,0,0,1,2-5.33,5.86,5.86,0,0,1,4.19-2.09,3.81,3.81,0,0,1,2.19.51,4.12,4.12,0,0,1,1.26,1.7,8.14,8.14,0,0,0,3.22,3.69,12.3,12.3,0,0,0,6,1.15,52.94,52.94,0,0,0,9.2-.67,30.9,30.9,0,0,0,6.24-1.73,18.9,18.9,0,0,0,4-2.17l2.18-1.62c1.12-.88,1.87-1.5,2.26-1.89a2,2,0,0,0,.57-1.47,3.18,3.18,0,0,0-.33-1.69,4.93,4.93,0,0,0-2.05-.92,12.83,12.83,0,0,0-3.65-.51,20.16,20.16,0,0,0-2.84.39c-1.42.26-2.69.46-3.81.59a32.47,32.47,0,0,1-4,.21c-1.5,0-3.09-.07-4.76-.21s-3.18-.29-4.54-.47-2.15-.27-2.4-.27a7.82,7.82,0,0,0-.82,0l-.59.06-.78.08-.93.08q-5.49,0-8.58-2.73a8,8,0,0,1-3.08-6.09c0-3.74,2-7.59,6.1-11.52A52.35,52.35,0,0,1,922,205.15Q930.25,201.27,935.45,201.27Z" transform="translate(-30.11 -148.93)"/><path class="cls-1" d="M491.33,297.18l-4.68,3.87q0,5.26.22,9.13a2.25,2.25,0,0,1-.56,1.65,2.11,2.11,0,0,1-1.55.74,2.25,2.25,0,0,1-1.64-.56,2.12,2.12,0,0,1-.75-1.56q-.14-2.7-.18-5.31,0-3.24,0-6.61c0-2.25,0-4,0-5.27q0-1.17-.18-4.83t-.13-5.88a2,2,0,0,1,.67-1.57,2.29,2.29,0,0,1,1.62-.63,2.07,2.07,0,0,1,1.58.67,2.29,2.29,0,0,1,.63,1.62c0,1.44,0,3.36.13,5.76s.18,4,.18,4.77,0,1.37,0,2.12a155.16,155.16,0,0,0,14.67-14.18,2.21,2.21,0,0,1,1.57-.72,2.14,2.14,0,0,1,1.62.59,2.21,2.21,0,0,1,.72,1.57,2.13,2.13,0,0,1-.58,1.62q-5,5.58-9.95,10l11.57,14.71a2.09,2.09,0,0,1,.47,1.65,2.19,2.19,0,0,1-.83,1.5,2.13,2.13,0,0,1-1.64.48,2.24,2.24,0,0,1-1.51-.84Z" transform="translate(-30.11 -148.93)"/><path class="cls-1" d="M513.56,312a2.29,2.29,0,0,1-.72-1.58,2.06,2.06,0,0,1,.61-1.6,2.24,2.24,0,0,1,1.55-.72l1,0q0-14-.09-23.27h-.72a2.07,2.07,0,0,1-1.58-.67,2.29,2.29,0,0,1-.63-1.62,2.08,2.08,0,0,1,.68-1.58,2.29,2.29,0,0,1,1.62-.63l5.58.09a2.09,2.09,0,0,1,1.55.68,2.24,2.24,0,0,1,.65,1.6,2.1,2.1,0,0,1-.67,1.57,2.23,2.23,0,0,1-1.62.65h-.36q.09,9.23.09,23.13h.9a2.25,2.25,0,1,1,0,4.5q-3.46,0-6.21.09A2.11,2.11,0,0,1,513.56,312Z" transform="translate(-30.11 -148.93)"/><path class="cls-1" d="M544.47,311.85a2.29,2.29,0,0,1-1.62.63,2.06,2.06,0,0,1-1.57-.68,2.29,2.29,0,0,1-.63-1.62q0-1.57,0-12.73,0-8.15.27-12.6-4.9,0-8.28.09a2.08,2.08,0,0,1-1.62-.61,2.26,2.26,0,0,1-.72-1.57,2,2,0,0,1,.61-1.6,2.24,2.24,0,0,1,1.55-.72q3.87-.13,10.76-.09t10.75,0a2.29,2.29,0,0,1,1.62.63,2.06,2.06,0,0,1,.68,1.57,2.29,2.29,0,0,1-.63,1.62,2.08,2.08,0,0,1-1.58.68q-3.19,0-8.64,0-.32,4.32-.27,12.51.09,11.21,0,12.87A2.08,2.08,0,0,1,544.47,311.85Z" transform="translate(-30.11 -148.93)"/><path class="cls-1" d="M571.52,312.25a14.47,14.47,0,0,1-4.14-1.75,12.86,12.86,0,0,1-3.58-3.56,19.57,19.57,0,0,1-2.5-5,16.75,16.75,0,0,1-.9-5.25,15.83,15.83,0,0,1,1.44-6.57,19.49,19.49,0,0,1,4-5.8,14.44,14.44,0,0,1,4.46-3.06,15.24,15.24,0,0,1,5.89-1.22,14.16,14.16,0,0,1,5.13,1,10.06,10.06,0,0,1,2.84,1.6,24.19,24.19,0,0,1,2.56,2.54l1.35,1.67a2.2,2.2,0,0,1,.54,1.39,2.11,2.11,0,0,1-.72,1.58,2.34,2.34,0,0,1-1.66.67,2.14,2.14,0,0,1-1.67-.85l-1.66-2a11.55,11.55,0,0,0-1.49-1.32,7.71,7.71,0,0,0-1.71-1,8.4,8.4,0,0,0-3.87-.67,11.06,11.06,0,0,0-6.88,3,12.32,12.32,0,0,0-4.1,9.09,13,13,0,0,0,1.47,5.74,8.72,8.72,0,0,0,6.36,5.51,13.73,13.73,0,0,0,3.51.45q5.44,0,7.11-3a10.64,10.64,0,0,0,.77-2.07l.45-1.44a2.41,2.41,0,0,1,.83-1.13,2,2,0,0,1,1.19-.4,2.4,2.4,0,0,1,1.62.63,2.05,2.05,0,0,1,.72,1.62,2.54,2.54,0,0,1-.13.81l-.32.94a32.13,32.13,0,0,1-1.17,3.2,9.38,9.38,0,0,1-3.91,3.73,15.14,15.14,0,0,1-5.76,1.58c-.27,0-.69,0-1.26,0A19,19,0,0,1,571.52,312.25Z" transform="translate(-30.11 -148.93)"/><path class="cls-1" d="M603,311.89a2.29,2.29,0,0,1-1.62.63,2.07,2.07,0,0,1-1.58-.67,2.29,2.29,0,0,1-.63-1.62q.09-4.14-.13-13.3t0-14.47a2.26,2.26,0,0,1,.72-1.55,2.09,2.09,0,0,1,1.6-.61,2.29,2.29,0,0,1,1.58.72,2.11,2.11,0,0,1,.6,1.62q-.13,4.82,0,11.39,10.62-.36,15.57-.32,0-6.12.23-11.16a2.09,2.09,0,0,1,.74-1.55,2.27,2.27,0,0,1,1.64-.56,2.15,2.15,0,0,1,1.56.74,2.27,2.27,0,0,1,.56,1.64q-.22,5.26-.27,9,0,4.46.11,10c.07,3.71.11,6.53.11,8.48a2.19,2.19,0,0,1-.65,1.6,2.15,2.15,0,0,1-1.6.65,2.13,2.13,0,0,1-1.59-.65,2.16,2.16,0,0,1-.66-1.6q0-1.57-.13-12.06-4.86,0-15.53.32.18,7.61.09,11.79A2,2,0,0,1,603,311.89Z" transform="translate(-30.11 -148.93)"/><path class="cls-1" d="M638.79,312.21a2.08,2.08,0,0,1-1.55-.68,2.16,2.16,0,0,1-.65-1.57,2.51,2.51,0,0,1-.27-1.13q.09-3.06.09-8.82t0-7.83c0-.51,0-1.4,0-2.67s0-2.46,0-3.56a24.35,24.35,0,0,1,.27-3.08,2.1,2.1,0,0,1,.54-1.13,2.27,2.27,0,0,1,1.08-.67,2.23,2.23,0,0,1,1.44-.59q3.33-.09,9.51-.13l8.44-.05a2.25,2.25,0,1,1,0,4.5l-8,.05-8.71.09a22.32,22.32,0,0,0-.07,3.44c0,1.88.07,3.17.07,3.89v1.85c1.47-.09,3-.14,4.71-.14s3.55,0,5.67,0,3.68,0,4.7,0a2.25,2.25,0,1,1,0,4.5c-1,0-2.63,0-4.75,0s-4,0-5.65,0-3.22,0-4.72.14q0,6.39,0,9.13,11,.18,17,.09a2.29,2.29,0,0,1,1.62.63,2.07,2.07,0,0,1,.67,1.58,2.29,2.29,0,0,1-.63,1.62,2,2,0,0,1-1.57.67Q651.85,312.43,638.79,312.21Z" transform="translate(-30.11 -148.93)"/><path class="cls-1" d="M693.2,312.57a2.19,2.19,0,0,1-2.16-.77c-.81-1-1.66-2.1-2.54-3.35s-1.62-2.32-2.19-3.22l-2.25-3.55L682,298.44q-3.06-4.72-7-9.95c0,2.52,0,6.21.16,11.07s.2,8.45.2,10.76a2.16,2.16,0,0,1-.65,1.6,2.19,2.19,0,0,1-1.6.65,2.24,2.24,0,0,1-2.25-2.25q0-2.7-.22-12.22t-.05-14.65a4.88,4.88,0,0,1,.32-1.39,3.3,3.3,0,0,1,.9-1.26,2.43,2.43,0,0,1,1.66-.41,2.16,2.16,0,0,1,1.53.81A178.84,178.84,0,0,1,685.77,296l1.85,2.92,2.11,3.33,1.85,2.75q.23-15,.09-22.37a2.29,2.29,0,0,1,.63-1.62,2,2,0,0,1,1.57-.67,2.29,2.29,0,0,1,1.62.63,2.06,2.06,0,0,1,.68,1.57q.09,5.63-.14,27.9a2.1,2.1,0,0,1-.67,1.56,2.22,2.22,0,0,1-1.58.65A1.81,1.81,0,0,1,693.2,312.57Z" transform="translate(-30.11 -148.93)"/></g><g id="logo"><path id="flame" class="cls-2" d="M186.68,277.85C194,267.61,200.9,255,200.9,242.42a60.93,60.93,0,0,0-20.78-45.91,61.55,61.55,0,0,1-2.08,7.93,58.23,58.23,0,0,1-3.24,7.77A65.41,65.41,0,0,1,155.17,235c-3.54,2.66-7.28,5-10.47,8.07-3.38,3.26-6.06,6.6-7,11.34-.92,4.45-.06,9.25,3.18,12.59a12.2,12.2,0,0,0,21-8.49h-11a24.51,24.51,0,0,1,8.58-7.3,24.26,24.26,0,0,1,11.11-2.67c.48,0,1,0,1.44,0l2.1.13v9.8a24.44,24.44,0,0,1-18.41,23.68,19.58,19.58,0,0,1-2.18.45,24.27,24.27,0,0,1-3.84.3c-.48,0-1,0-1.44,0a24.43,24.43,0,0,1-19.77-12.25c-9.34-16.3,3.48-34.63,12.63-47.78a143.72,143.72,0,0,0,9.25-15c7.62-14.52,11.61-30.83,1.61-45.76A36.79,36.79,0,0,0,136,148.93a12.11,12.11,0,0,1,3,8v.43c0,.07,0,.14,0,.21s0,.2,0,.3a37.88,37.88,0,0,1-2.47,10,105.41,105.41,0,0,1-6.64,14.26,189.57,189.57,0,0,1-20.45,29.59c-7.13,8.59-14.18,16.7-17.76,27.39A60.61,60.61,0,0,0,89,250.61c-.27,2.1-.43,4.22-.49,6.34.07,27,27.45,48.8,61.24,48.8,31.33,0,57.17-18.78,60.81-43C204.73,269.2,194.65,274.38,186.68,277.85Z" transform="translate(-30.11 -148.93)"/><path id="pan" class="cls-3" d="M217,289.71H35.47a5.37,5.37,0,0,0,0,10.73H80.61c6.18,28.84,34.55,50.63,68.62,50.63,37.32,0,67.81-26.16,69.77-59.09A2.09,2.09,0,0,0,217,289.71Z" transform="translate(-30.11 -148.93)"/></g></svg>