<svg id="logo_full" xmlns="http://www.w3.org/2000/svg" viewBox="0 0 941.87 202.14"><defs><style>.cls-1{font-size:84px;font-family:ComicStripMN, Comic Strip MN;}.cls-1,.cls-2{fill:#fff;}.cls-2{font-size:45px;font-family:BalsamiqSans-Regular, Balsamiq Sans;letter-spacing:0.1em;}.cls-3{letter-spacing:0.04em;}.cls-4{fill:#ef2020;}.cls-5{fill:#0c0c0c;}</style></defs><title>gauthankars_kitchen_full</title><g id="name"><text class="cls-1" transform="translate(220.07 108.45)">Gauthankar’s</text><text class="cls-2" transform="translate(447.63 163.59)">KI<tspan class="cls-3" x="51.97" y="0">T</tspan><tspan x="80.64" y="0">CHEN</tspan></text></g><g id="logo"><path id="flame" class="cls-4" d="M186.68,277.85C194,267.61,200.9,255,200.9,242.42a60.93,60.93,0,0,0-20.78-45.91,61.55,61.55,0,0,1-2.08,7.93,58.23,58.23,0,0,1-3.24,7.77A65.41,65.41,0,0,1,155.17,235c-3.54,2.66-7.28,5-10.47,8.07-3.38,3.26-6.06,6.6-7,11.34-.92,4.45-.06,9.25,3.18,12.59a12.2,12.2,0,0,0,21-8.49h-11a24.51,24.51,0,0,1,8.58-7.3,24.26,24.26,0,0,1,11.11-2.67c.48,0,1,0,1.44,0l2.1.13v9.8a24.44,24.44,0,0,1-18.41,23.68,19.58,19.58,0,0,1-2.18.45,24.27,24.27,0,0,1-3.84.3c-.48,0-1,0-1.44,0a24.43,24.43,0,0,1-19.77-12.25c-9.34-16.3,3.48-34.63,12.63-47.78a143.72,143.72,0,0,0,9.25-15c7.62-14.52,11.61-30.83,1.61-45.76A36.79,36.79,0,0,0,136,148.93a12.11,12.11,0,0,1,3,8v.43c0,.07,0,.14,0,.21s0,.2,0,.3a37.88,37.88,0,0,1-2.47,10,105.41,105.41,0,0,1-6.64,14.26,189.57,189.57,0,0,1-20.45,29.59c-7.13,8.59-14.18,16.7-17.76,27.39A60.61,60.61,0,0,0,89,250.61c-.27,2.1-.43,4.22-.49,6.34.07,27,27.45,48.8,61.24,48.8,31.33,0,57.17-18.78,60.81-43C204.73,269.2,194.65,274.38,186.68,277.85Z" transform="translate(-30.11 -148.93)"/><path id="pan" class="cls-5" d="M217,289.71H35.47a5.37,5.37,0,0,0,0,10.73H80.61c6.18,28.84,34.55,50.63,68.62,50.63,37.32,0,67.81-26.16,69.77-59.09A2.09,2.09,0,0,0,217,289.71Z" transform="translate(-30.11 -148.93)"/></g></svg>