<svg id="logo" xmlns="http://www.w3.org/2000/svg" viewBox="0 0 906.83 970.43"><defs><style>.cls-1{fill:#ff2929;}.cls-2{fill:#0c0c0c;}</style></defs><title>gauthankars_kitchen_flame</title><path id="flame" class="cls-1" d="M798.25,633.72c35.12-49.17,68.27-109.68,68.27-170.1a294.12,294.12,0,0,0-8.27-69.36,290.69,290.69,0,0,0-13.77-42.39,293.88,293.88,0,0,0-77.73-108.68,290.92,290.92,0,0,1-10,38.09,281.35,281.35,0,0,1-15.56,37.32c-22,43.52-54.4,79.64-94.26,109.53-17,12.75-34.92,23.92-50.23,38.72-16.23,15.69-29.12,31.71-33.85,54.45-4.45,21.39-.3,44.43,15.27,60.47A58.56,58.56,0,0,0,678.77,541H625.94a118,118,0,0,1,41.2-35.05,116.7,116.7,0,0,1,53.33-12.79c2.32,0,4.63.06,6.93.2l10.09.6v47a117.32,117.32,0,0,1-88.4,113.7c-3.42.88-6.92,1.6-10.46,2.15a116.64,116.64,0,0,1-18.43,1.45q-3.5,0-6.92-.2a117.27,117.27,0,0,1-94.89-58.82C473.52,521,535.09,433,579,369.89c15.51-22.3,31.1-46.46,44.39-71.76,36.61-69.7,55.77-148,7.74-219.7A176.72,176.72,0,0,0,555,14.79a58.33,58.33,0,0,1,14.37,38.43c0,.66,0,1.35,0,2,0,.32,0,.66,0,1s0,1-.09,1.44c-.78,12.32-4.73,28.62-11.84,48-7.29,19.92-17.93,43.07-31.87,68.46-27.76,50.52-61.42,97.74-98.2,142.06C393,357.4,359.18,396.36,342,447.69a293.93,293.93,0,0,0-15.06,85.67c.33,129.44,131.77,234.28,294,234.28,150.42,0,274.45-90.16,292-206.48C884.92,592.18,836.53,617,798.25,633.72Z" transform="translate(-46.59 -14.79)"/><path id="pan" class="cls-2" d="M943.81,690.65H72.34a25.76,25.76,0,0,0,0,51.51H289.05C318.73,880.6,454.9,985.21,618.45,985.21c179.2,0,325.56-125.59,334.94-283.66C953.74,695.66,949.37,690.65,943.81,690.65Z" transform="translate(-46.59 -14.79)"/></svg>